<svg width="16px" height="16px" viewBox="0 0 64 64" version="1.1" xmlns="http://www.w3.org/2000/svg" xmlns:xlink="http://www.w3.org/1999/xlink" xml:space="preserve" xmlns:serif="http://www.serif.com/" style="fill-rule:evenodd;clip-rule:evenodd;stroke-linejoin:round;stroke-miterlimit:2;" fill="currentColor"><rect id="Action" x="0" y="0" width="64" height="64" style="fill:none;"></rect><g id="Action1" serif:id="Action"><path d="M59.199,35.022l-24.177,24.177c-1.668,1.668 -4.376,1.668 -6.044,0l-24.177,-24.177c-1.668,-1.668 -1.668,-4.376 -0,-6.044l24.177,-24.177c1.668,-1.668 4.376,-1.668 6.044,-0l24.177,24.177c1.668,1.668 1.668,4.376 0,6.044Zm-5.796,-1.896c0.622,-0.621 0.622,-1.631 -0,-2.252l-20.277,-20.277c-0.621,-0.622 -1.631,-0.622 -2.252,0l-20.277,20.277c-0.622,0.621 -0.622,1.631 0,2.252l20.277,20.277c0.621,0.622 1.631,0.622 2.252,-0l20.277,-20.277Z"></path><path d="M44.152,32.64l-11.512,11.512c-0.353,0.353 -0.927,0.353 -1.28,-0l-11.512,-11.512c-0.353,-0.353 -0.353,-0.927 0,-1.28l11.512,-11.512c0.353,-0.353 0.927,-0.353 1.28,0l11.512,11.512c0.353,0.353 0.353,0.927 -0,1.28Z"></path></g></svg>