<svg width="16px" height="16px" viewBox="0 0 64 64" version="1.1" xmlns="http://www.w3.org/2000/svg" xmlns:xlink="http://www.w3.org/1999/xlink" xml:space="preserve" xmlns:serif="http://www.serif.com/" style="fill-rule:evenodd;clip-rule:evenodd;stroke-linejoin:round;stroke-miterlimit:2;" fill="currentColor"><rect id="Episodic" x="0" y="0" width="64" height="64" style="fill:none;"></rect><path d="M51.632,40.175c0.405,0 0.769,0.244 0.924,0.617c0.155,0.374 0.069,0.804 -0.217,1.09c-4.671,4.671 -17.317,17.317 -17.317,17.317c-1.668,1.668 -4.376,1.668 -6.044,0l-24.177,-24.177c-1.668,-1.668 -1.668,-4.376 -0,-6.044l24.177,-24.177c1.668,-1.668 4.376,-1.668 6.044,-0c0,-0 12.646,12.646 17.317,17.317c0.286,0.286 0.372,0.716 0.217,1.09c-0.155,0.373 -0.519,0.617 -0.924,0.617c-2.129,-0 -5.166,-0 -6.964,-0c-0.828,-0 -1.5,-0.672 -1.5,-1.5c0,-0.826 0,-1.686 0,-1.686l-10.042,-10.042c-0.621,-0.622 -1.631,-0.622 -2.252,0l-20.277,20.277c-0.622,0.621 -0.622,1.631 0,2.252l20.277,20.277c0.621,0.622 1.631,0.622 2.252,-0l10.042,-10.042l0,-1.686c0,-0.828 0.672,-1.5 1.5,-1.5c1.798,-0 4.835,-0 6.964,-0Z"></path><rect x="7.191" y="29.28" width="24.809" height="5.439"></rect><path d="M38.079,32.32l-5.759,5.759c-0.177,0.177 -0.463,0.177 -0.64,0l-5.759,-5.759c-0.177,-0.177 -0.177,-0.463 -0,-0.64l5.759,-5.759c0.177,-0.177 0.463,-0.177 0.64,-0l5.759,5.759c0.177,0.177 0.177,0.463 0,0.64Z"></path></svg>