<svg width="16px" height="16px" viewBox="0 0 64 64" version="1.1" xmlns="http://www.w3.org/2000/svg" xmlns:xlink="http://www.w3.org/1999/xlink" xml:space="preserve" xmlns:serif="http://www.serif.com/" style="fill-rule:evenodd;clip-rule:evenodd;stroke-linejoin:round;stroke-miterlimit:2;" fill="currentColor"><rect id="FreeReaction" x="0" y="0" width="64" height="64" style="fill:none;"></rect><g id="Reaction"><path d="M44.152,32.64l-11.512,11.512c-0.353,0.353 -0.927,0.353 -1.28,-0l-11.512,-11.512c-0.353,-0.353 -0.353,-0.927 0,-1.28l11.512,-11.512c0.353,-0.353 0.927,-0.353 1.28,0l11.512,11.512c0.353,0.353 0.353,0.927 -0,1.28Z"></path><path d="M14.966,45.188c0,-0 -8.994,-8.995 -12.127,-12.127c-0.585,-0.586 -0.585,-1.536 0,-2.122c3.133,-3.132 12.127,-12.127 12.127,-12.127l3.846,3.846l-6.622,6.622l18.865,0c1.326,0 2.598,0.527 3.536,1.465l14.443,14.443l-3.846,3.846l-13.582,-13.582c-0.469,-0.469 -1.105,-0.732 -1.768,-0.732l-17.648,-0l6.622,6.622l-3.846,3.846Z"></path></g></svg>