<svg width="16px" height="16px" viewBox="0 0 64 64" version="1.1" xmlns="http://www.w3.org/2000/svg" xmlns:xlink="http://www.w3.org/1999/xlink" xml:space="preserve" xmlns:serif="http://www.serif.com/" style="fill-rule:evenodd;clip-rule:evenodd;stroke-linejoin:round;stroke-miterlimit:2;" fill="currentColor"><rect id="LongAction" x="0" y="0" width="64" height="64" style="fill:none;"></rect><g id="FreeAction"><path d="M59.199,35.022l-24.177,24.177c-1.668,1.668 -4.376,1.668 -6.044,0l-24.177,-24.177c-1.668,-1.668 -1.668,-4.376 -0,-6.044l24.177,-24.177c1.668,-1.668 4.376,-1.668 6.044,-0l24.177,24.177c1.668,1.668 1.668,4.376 0,6.044Zm-5.796,-1.896c0.622,-0.621 0.622,-1.631 -0,-2.252l-20.277,-20.277c-0.621,-0.622 -1.631,-0.622 -2.252,0l-20.277,20.277c-0.622,0.621 -0.622,1.631 0,2.252l20.277,20.277c0.621,0.622 1.631,0.622 2.252,-0l20.277,-20.277Z"></path></g><rect x="29.28" y="29.28" width="5.439" height="5.439"></rect><path d="M43.851,31.64l-13.975,3.745l-1.408,-5.254l10.942,-2.932l4.441,4.441Z"></path><path d="M34.72,19.248l-0,17.395l-5.44,0l0,-17.395l1.594,-1.593c0.621,-0.622 1.631,-0.622 2.252,-0l1.594,1.593Z"></path></svg>