<svg width="16px" height="16px" viewBox="0 0 64 64" version="1.1" xmlns="http://www.w3.org/2000/svg" xmlns:xlink="http://www.w3.org/1999/xlink" xml:space="preserve" xmlns:serif="http://www.serif.com/" style="fill-rule:evenodd;clip-rule:evenodd;stroke-linejoin:round;stroke-miterlimit:2;" fill="currentColor"><rect id="Passive" x="0" y="0" width="64" height="64" style="fill:none;"></rect><g id="Passive1" serif:id="Passive"><path d="M29.115,43.183l-5.055,5.054c-1.668,1.668 -4.376,1.668 -6.044,0l-13.215,-13.215c-1.668,-1.668 -1.668,-4.376 -0,-6.044l13.215,-13.215c1.668,-1.668 4.376,-1.668 6.044,-0l13.216,13.215c1.668,1.668 1.668,4.376 -0,6.044l-5.276,5.276l-3.846,-3.846l3.325,-3.326c0.622,-0.621 0.622,-1.631 0,-2.252l-9.314,-9.315c-0.622,-0.622 -1.631,-0.622 -2.253,-0l-9.315,9.315c-0.622,0.621 -0.622,1.631 0,2.252l9.315,9.315c0.622,0.622 1.631,0.622 2.253,0l3.104,-3.104l3.846,3.846Z"></path><path d="M34.885,20.817l5.055,-5.054c1.668,-1.668 4.376,-1.668 6.044,-0l13.215,13.215c1.668,1.668 1.668,4.376 0,6.044l-13.215,13.215c-1.668,1.668 -4.376,1.668 -6.044,0l-13.216,-13.215c-1.668,-1.668 -1.668,-4.376 0,-6.044l5.276,-5.276l3.846,3.846l-3.325,3.326c-0.622,0.621 -0.622,1.631 -0,2.252l9.314,9.315c0.622,0.622 1.631,0.622 2.253,0l9.315,-9.315c0.622,-0.621 0.622,-1.631 -0,-2.252l-9.315,-9.315c-0.622,-0.622 -1.631,-0.622 -2.253,-0l-3.104,3.104l-3.846,-3.846Z"></path></g></svg>