<svg width="16px" height="16px" viewBox="0 0 64 64" version="1.1" xmlns="http://www.w3.org/2000/svg" xmlns:xlink="http://www.w3.org/1999/xlink" xml:space="preserve" xmlns:serif="http://www.serif.com/" style="fill-rule:evenodd;clip-rule:evenodd;stroke-linejoin:round;stroke-miterlimit:2;" fill="currentColor"><rect id="Reaction" x="0" y="0" width="64" height="64" style="fill:none;"></rect><g id="Reaction1" serif:id="Reaction"><path d="M44.152,32.64l-11.512,11.512c-0.353,0.353 -0.927,0.353 -1.28,-0l-11.512,-11.512c-0.353,-0.353 -0.353,-0.927 0,-1.28l11.512,-11.512c0.353,-0.353 0.927,-0.353 1.28,0l11.512,11.512c0.353,0.353 0.353,0.927 -0,1.28Z"></path><path d="M14.966,45.188c0,-0 -8.994,-8.995 -12.127,-12.127c-0.585,-0.586 -0.585,-1.536 0,-2.122c3.133,-3.132 12.127,-12.127 12.127,-12.127l3.846,3.846l-6.622,6.622l18.865,0c1.326,0 2.598,0.527 3.536,1.465l14.443,14.443l-3.846,3.846l-13.582,-13.582c-0.469,-0.469 -1.105,-0.732 -1.768,-0.732l-17.648,-0l6.622,6.622l-3.846,3.846Z"></path><path d="M49.034,37.496l4.369,-4.37c0.622,-0.621 0.622,-1.631 -0,-2.252l-20.277,-20.277c-0.621,-0.622 -1.631,-0.622 -2.252,0l-7.254,7.254l-3.846,-3.846l9.204,-9.204c1.668,-1.668 4.376,-1.668 6.044,-0l24.177,24.177c1.668,1.668 1.668,4.376 0,6.044l-6.319,6.32l-3.846,-3.846Zm-7.692,15.384l-6.32,6.319c-1.668,1.668 -4.376,1.668 -6.044,0l-9.204,-9.204l3.846,-3.846l7.254,7.254c0.621,0.622 1.631,0.622 2.252,-0l4.37,-4.369l3.846,3.846Z"></path></g></svg>