<svg width="16px" height="16px" viewBox="0 0 64 64" version="1.1" xmlns="http://www.w3.org/2000/svg" xmlns:xlink="http://www.w3.org/1999/xlink" xml:space="preserve" xmlns:serif="http://www.serif.com/" style="fill-rule:evenodd;clip-rule:evenodd;stroke-linejoin:round;stroke-miterlimit:2;" fill="currentColor"><rect id="SlowAction" x="0" y="0" width="64" height="64" style="fill:none;"></rect><g id="SlowAction1" serif:id="SlowAction"><path d="M59.199,35.022l-24.177,24.177c-1.668,1.668 -4.376,1.668 -6.044,0l-24.177,-24.177c-1.668,-1.668 -1.668,-4.376 -0,-6.044l24.177,-24.177c1.668,-1.668 4.376,-1.668 6.044,-0l24.177,24.177c1.668,1.668 1.668,4.376 0,6.044Zm-5.796,-1.896c0.622,-0.621 0.622,-1.631 -0,-2.252l-20.277,-20.277c-0.621,-0.622 -1.631,-0.622 -2.252,0l-20.277,20.277c-0.622,0.621 -0.622,1.631 0,2.252l20.277,20.277c0.621,0.622 1.631,0.622 2.252,-0l20.277,-20.277Z"></path><path d="M45.763,32.238l-4.284,4.284c-0.131,0.131 -0.345,0.131 -0.476,-0l-4.284,-4.284c-0.131,-0.131 -0.131,-0.345 -0,-0.476l4.284,-4.284c0.131,-0.131 0.345,-0.131 0.476,0l4.284,4.284c0.131,0.131 0.131,0.345 -0,0.476Z"></path><path d="M36.522,32.238l-4.284,4.284c-0.131,0.131 -0.345,0.131 -0.476,-0l-4.284,-4.284c-0.131,-0.131 -0.131,-0.345 0,-0.476l4.284,-4.284c0.131,-0.131 0.345,-0.131 0.476,0l4.284,4.284c0.131,0.131 0.131,0.345 -0,0.476Z"></path><circle cx="22.389" cy="32" r="4.25"></circle><circle cx="32" cy="32" r="4.25"></circle><circle cx="41.611" cy="32" r="4.25"></circle><path d="M27.281,32.238l-4.284,4.284c-0.131,0.131 -0.345,0.131 -0.476,-0l-4.284,-4.284c-0.131,-0.131 -0.131,-0.345 0,-0.476l4.284,-4.284c0.131,-0.131 0.345,-0.131 0.476,0l4.284,4.284c0.131,0.131 0.131,0.345 0,0.476Z"></path></g></svg>